<?xml version="1.0" standalone="no"?><!DOCTYPE svg PUBLIC "-//W3C//DTD SVG 1.1//EN" "http://www.w3.org/Graphics/SVG/1.1/DTD/svg11.dtd"><svg t="1651830578091" class="icon" viewBox="0 0 1024 1024" version="1.1" xmlns="http://www.w3.org/2000/svg" p-id="7106" xmlns:xlink="http://www.w3.org/1999/xlink" width="200" height="200"><defs><style type="text/css">@font-face { font-family: feedback-iconfont; src: url("//at.alicdn.com/t/font_1031158_u69w8yhxdu.woff2?t=1630033759944") format("woff2"), url("//at.alicdn.com/t/font_1031158_u69w8yhxdu.woff?t=1630033759944") format("woff"), url("//at.alicdn.com/t/font_1031158_u69w8yhxdu.ttf?t=1630033759944") format("truetype"); }
</style></defs><path d="M831.7 839.4H192.3c-37.3 0-67.5-30.2-67.5-67.5v-337c0-36.1 18.1-69.7 48.2-89.6l301.8-199c22.5-14.9 51.8-14.9 74.3 0l301.8 199c30.1 19.9 48.2 53.5 48.2 89.6v337c0.1 37.3-30.2 67.5-67.4 67.5z" fill="#FFA820" p-id="7107"></path><path d="M622.3 194.6l-73.2-48.3c-6-4-12.5-6.9-19.3-8.8-6.6-0.3-13.2-0.4-19.8-0.4-5.1 0-10.2 0.1-15.3 0.3-7 1.8-13.7 4.8-19.9 8.9l-48.4 31.9c21.7-3.8 44-5.7 66.7-5.7 45.3 0 88.8 7.8 129.2 22.1zM124.8 434.9v4.3c10.6-32.3 25.3-62.7 43.5-90.6-27.3 20.2-43.5 52.2-43.5 86.3zM124.8 680.8v91.1c0 37.3 30.2 67.5 67.5 67.5h32.3c-45.2-43.4-79.8-97.7-99.8-158.6zM899.1 771.9v-337c0-36.1-18.1-69.7-48.2-89.6L777.7 297c63.9 69.1 102.9 161.5 102.9 263 0 109.8-45.7 208.9-119 279.4h70.1c18.4 0 35.1-7.4 47.2-19.3 6.1-9.4 11.9-19 17.4-28.8a68.4 68.4 0 0 0 2.8-19.4z" fill="#FEB133" p-id="7108"></path><path d="M142.6 541.8c0-101.1 45-191.7 116-252.9L173 345.3c-1.6 1.1-3.2 2.2-4.7 3.3-18.2 27.9-32.9 58.3-43.5 90.6v241.6c20 60.9 54.6 115.2 99.8 158.6h100.5c-108.3-55.1-182.5-167.7-182.5-297.6zM880.6 560c0-101.5-39-193.9-102.9-263L622.3 194.6c-40.4-14.3-83.9-22.1-129.2-22.1-22.8 0-45 2-66.7 5.7l-96.2 63.4c44.2-21.6 93.8-33.7 146.2-33.7 184.4 0 333.8 149.4 333.8 333.8 0 129.9-74.2 242.4-182.5 297.6h133.9c73.3-70.4 119-169.5 119-279.3z" fill="#FEB533" p-id="7109"></path><path d="M810.2 541.8c0-184.4-149.4-333.8-333.8-333.8-52.5 0-102.1 12.1-146.2 33.7l-71.6 47.2c-71 61.2-116 151.8-116 252.9 0 129.9 74.2 242.4 182.5 297.6h302.6C736 784.3 810.2 671.7 810.2 541.8zM459.5 803.6c-154.6 0-280-125.4-280-280s125.4-280 280-280 280 125.4 280 280-125.4 280-280 280z" fill="#FEBA33" p-id="7110"></path><path d="M459.5 243.6c-154.6 0-280 125.4-280 280s125.4 280 280 280 280-125.4 280-280-125.4-280-280-280z m-16.8 488.2c-125 0-226.4-101.4-226.4-226.4S317.7 279 442.7 279s226.4 101.4 226.4 226.4-101.4 226.4-226.4 226.4z" fill="#FFBE34" p-id="7111"></path><path d="M442.7 279c-125 0-226.4 101.4-226.4 226.4s101.4 226.4 226.4 226.4 226.4-101.4 226.4-226.4S567.7 279 442.7 279z m-16.8 380.8c-95.3 0-172.6-77.3-172.6-172.6s77.3-172.6 172.6-172.6 172.6 77.3 172.6 172.6-77.3 172.6-172.6 172.6z" fill="#FFC234" p-id="7112"></path><path d="M425.9 314.6c-95.3 0-172.6 77.3-172.6 172.6s77.3 172.6 172.6 172.6 172.6-77.3 172.6-172.6-77.3-172.6-172.6-172.6z m-16.8 273.2c-65.7 0-118.9-53.2-118.9-118.9S343.4 350 409.1 350 528 403.3 528 468.9s-53.2 118.9-118.9 118.9z" fill="#FFC734" p-id="7113"></path><path d="M324.997308 552.986059a118.9 118.9 0 1 0 168.147057-168.152928 118.9 118.9 0 1 0-168.147057 168.152928Z" fill="#FFCB34" p-id="7114"></path><path d="M831.7 848.4H192.3c-42.2 0-76.5-34.3-76.5-76.5v-337c0-39.2 19.5-75.5 52.2-97.1l301.8-199c25.6-16.9 58.6-16.9 84.2 0l301.8 199c32.7 21.6 52.2 57.9 52.2 97.1v337c0.1 20.4-7.9 39.6-22.3 54-14.3 14.6-33.5 22.5-54 22.5zM511.9 144.1c-11.2 0-22.4 3.2-32.2 9.7L178 352.8c-27.6 18.3-44.2 49-44.2 82.1v337c0 32.3 26.2 58.5 58.5 58.5h639.4c15.6 0 30.3-6.1 41.4-17.2 11-11 17.1-25.7 17-41.3v-337c0-33.1-16.5-63.8-44.2-82.1l-301.8-199c-9.7-6.4-20.9-9.7-32.2-9.7z" fill="#FFA820" p-id="7115"></path><path d="M473.2 615L191.3 425.5c-12.1-8.1-6.3-27 8.2-27h624.9c14.6 0 20.3 18.9 8.2 27L550.8 615a69.813 69.813 0 0 1-77.6 0z" fill="#FFE3B4" p-id="7116"></path><path d="M166.8 481.8v124.1c0 9.9 8.1 18 18 18s18-8.1 18-18V481.8c0-9.9-8.1-18-18-18s-18 8.1-18 18zM166.8 665.9v10.5c0 9.9 8.1 18 18 18s18-8.1 18-18v-10.5c0-9.9-8.1-18-18-18s-18 8-18 18z" fill="#FFFFFF" p-id="7117"></path></svg>